<?xml version="1.0" encoding="utf-8"?>
<!-- Generator: Adobe Illustrator 28.1.0, SVG Export Plug-In . SVG Version: 6.00 Build 0)  -->
<svg version="1.1" id="Camada_1" xmlns="http://www.w3.org/2000/svg" xmlns:xlink="http://www.w3.org/1999/xlink" x="0px" y="0px"
	 viewBox="0 0 800 800" style="enable-background:new 0 0 800 800;" xml:space="preserve">
<style type="text/css">
	.st0{fill:#B58363;}
	.st1{fill:#FFFFFF;}
	.st2{opacity:0.69;fill:url(#SVGID_1_);enable-background:new    ;}
	.st3{fill:#848484;}
	.st4{fill:#9DB1BC;}
	.st5{opacity:0.42;fill:url(#SVGID_00000011735730671754837450000001260962633964581001_);enable-background:new    ;}
</style>
<g id="Camada_1_00000046311322795103345970000015740175742009951121_">
</g>
<g>
	<rect x="372" y="375.1" class="st0" width="9.6" height="116.3"/>
	<path class="st1" d="M620.6,454.1c-52.4,0-95,42.5-95,95c0,52.4,42.5,95,95,95s95-42.5,95-95S673,454.1,620.6,454.1z M620.6,606.7
		c-31.8,0-57.7-25.8-57.7-57.7s25.8-57.7,57.7-57.7s57.7,25.8,57.7,57.7S652.4,606.7,620.6,606.7z"/>
	<linearGradient id="SVGID_1_" gradientUnits="userSpaceOnUse" x1="525.6348" y1="549.235" x2="715.5549" y2="549.235">
		<stop  offset="0" style="stop-color:#FFFFFF"/>
		<stop  offset="0" style="stop-color:#868586"/>
		<stop  offset="1" style="stop-color:#FBFAFB"/>
	</linearGradient>
	<path class="st2" d="M705.5,526.9c-12.1-3.2-22.5-12.8-31.8-20.7c-7.7-6.5-14.2-11.2-23.5-15.1c-11.5-4.9-25-9.7-33.8-19
		c-5.6-6-6.2-12.1-3.8-17.6c-48.7,4-87,44.8-87,94.6c0,52.4,42.5,95,95,95s95-42.5,95-95c0-7.4-0.9-14.6-2.5-21.5
		C710.8,527.8,708.3,527.6,705.5,526.9z M620.6,606.7c-31.8,0-57.7-25.8-57.7-57.7s25.8-57.7,57.7-57.7s57.7,25.8,57.7,57.7
		S652.4,606.7,620.6,606.7z"/>
	<path class="st1" d="M379.6,326.8v468.5c0,0-190.2,0-226-88.9V421.9C153.6,421.9,143.3,333.7,379.6,326.8z"/>
	<path class="st3" d="M379.6,374.4c0,0-151.8-1.4-203.6,57.6c0,0,55.8,51.2,203.6,55.4V374.4z"/>
	<path class="st4" d="M379.6,336.5c0,0-223,7-203.6,95.5c0,0,35.5-51.7,203.6-57.6V336.5z"/>
	<path class="st1" d="M378.3,326.8v468.5c0,0,190.2,0,226-88.9V421.9C604.3,421.9,614.6,333.7,378.3,326.8z"/>
	<path class="st3" d="M378.3,374.4c0,0,151.8-1.4,203.6,57.6c0,0-55.8,51.2-203.6,55.4V374.4z"/>
	
		<linearGradient id="SVGID_00000049208396889591987560000004566266799954512525_" gradientUnits="userSpaceOnUse" x1="354.0849" y1="615.95" x2="604.2749" y2="615.95">
		<stop  offset="0" style="stop-color:#FFFFFF"/>
		<stop  offset="1" style="stop-color:#868586"/>
	</linearGradient>
	<path style="opacity:0.42;fill:url(#SVGID_00000049208396889591987560000004566266799954512525_);enable-background:new    ;" d="
		M354.1,511.5c0,0,179.3,11.3,250.2-75v270c0,0-21.4,88.9-250.2,88.9V511.5z"/>
	<path class="st4" d="M377.7,374.4c168.1,5.9,203.6,57.6,203.6,57.6c19.3-88.5-203.6-95.5-203.6-95.5V374.4z"/>
</g>
</svg>
