<?xml version="1.0" encoding="utf-8"?>
<!-- Generator: Adobe Illustrator 28.1.0, SVG Export Plug-In . SVG Version: 6.00 Build 0)  -->
<svg version="1.1" id="Camada_1" xmlns="http://www.w3.org/2000/svg" xmlns:xlink="http://www.w3.org/1999/xlink" x="0px" y="0px"
	 viewBox="0 0 800 800" style="enable-background:new 0 0 800 800;" xml:space="preserve">
<style type="text/css">
	.st0{fill:#512217;}
	.st1{fill:#9FB2BC;}
	.st2{fill:#838688;}
	.st3{fill:#B58363;}
	.st4{fill:#FFFFFF;}
	.st5{opacity:0.69;fill:url(#SVGID_1_);enable-background:new    ;}
	.st6{fill:#9DB1BC;}
	.st7{fill:#431A0D;}
	.st8{opacity:0.42;fill:url(#SVGID_00000078743436669682234990000003000669253641593262_);enable-background:new    ;}
	.st9{opacity:0.42;fill:url(#SVGID_00000174597802741673353500000001221859375741359771_);enable-background:new    ;}
	.st10{fill:#FDFDFD;}
</style>
<g id="Camada_1_00000046311322795103345970000015740175742009951121_">
</g>
<g id="Camada_2_00000045606845455542242940000016507277011722369432_">
	<g>
		<g>
			<g>
				<path class="st0" d="M250.96,65.19c13.93,5.36,27.87,10.72,41.8,16.08C342.28,58,391.8,34.73,441.32,11.46
					C377.87,29.37,314.41,47.28,250.96,65.19z"/>
				<path class="st0" d="M292.93,85.92L237.4,64.56c70.17-19.87,140.34-39.75,210.51-59.62c-1.59,3.47-3.18,6.93-4.77,10.4
					L292.93,85.92z M264.51,65.81l28.08,10.8l99.8-46.89L264.51,65.81z"/>
			</g>
			<g>
				<polygon class="st0" points="447.71,13.7 328.35,93.68 384.91,110.77 				"/>
				<path class="st0" d="M386.75,115.8l-68.3-20.64c40.31-36.86,73.7-62.25,90.98-72.46C422.59,14.93,435,9.77,435,9.77
					c10.44-4.34,19.48-7.02,25.88-8.66C436.17,39.34,411.46,77.57,386.75,115.8z M338.26,92.2l44.8,13.54l49.75-76.91L338.26,92.2z"
					/>
			</g>
			<g>
				<path class="st0" d="M317.35,124.96l-19.37-41.08c49.7-24.3,99.41-48.6,149.11-72.9c-41.66,27-83.32,53.99-124.98,80.99
					L317.35,124.96z"/>
				<path class="st0" d="M320.24,134.96c-9.1-16.35-18.21-32.7-27.31-49.04C345.62,59.95,398.31,33.97,451,8
					C407.41,50.32,363.83,92.64,320.24,134.96z M303.66,85.88l11.5,24.38l3.01-20.82l66.93-43.37L303.66,85.88z"/>
			</g>
			<g>
				<polygon class="st0" points="326.83,98.15 323.17,121.66 339.35,101.81 				"/>
				<path class="st0" d="M320.24,134.96c1.04-14.1,2.08-28.19,3.11-42.29l23.39,6.85C337.91,111.33,329.07,123.15,320.24,134.96z
					 M330.31,103.63l-0.48,3.07l2.12-2.6L330.31,103.63z"/>
			</g>
		</g>
		<g>
			<path class="st1" d="M250.96,65.19c13.93,5.36,27.87,10.72,41.8,16.08C342.28,58,391.8,34.73,441.32,11.46
				C377.87,29.37,314.41,47.28,250.96,65.19z"/>
			<polygon class="st1" points="447.71,13.7 328.35,93.68 384.91,110.77 			"/>
			<path class="st2" d="M317.35,124.96l-19.37-41.08c49.7-24.3,99.41-48.6,149.11-72.9c-41.66,27-83.32,53.99-124.98,80.99
				L317.35,124.96z"/>
			<path class="st1" d="M326.83,98.15c-2.04,10.12-4.08,20.24-6.12,30.35c8.56-8.32,17.12-16.64,25.67-24.96
				C339.87,101.75,333.35,99.95,326.83,98.15z"/>
		</g>
		<rect x="369.47" y="378.6" class="st3" width="9.65" height="116.32"/>
		<path class="st4" d="M618.05,457.62c-52.44,0-94.96,42.52-94.96,94.96s42.52,94.96,94.96,94.96s94.96-42.52,94.96-94.96
			S670.5,457.62,618.05,457.62z M618.05,610.25c-31.85,0-57.67-25.82-57.67-57.67s25.82-57.67,57.67-57.67s57.67,25.82,57.67,57.67
			S649.9,610.25,618.05,610.25z"/>
		
			<linearGradient id="SVGID_1_" gradientUnits="userSpaceOnUse" x1="523.0999" y1="247.24" x2="713.02" y2="247.24" gradientTransform="matrix(1 0 0 -1 0 800)">
			<stop  offset="0" style="stop-color:#FFFFFF"/>
			<stop  offset="0" style="stop-color:#868586"/>
			<stop  offset="1" style="stop-color:#FBFAFB"/>
		</linearGradient>
		<path class="st5" d="M702.94,530.4c-12.1-3.2-22.48-12.81-31.78-20.69c-7.72-6.54-14.18-11.17-23.53-15.15
			c-11.49-4.89-25-9.66-33.76-18.98c-5.62-5.98-6.21-12.14-3.76-17.6c-48.72,4.04-87.01,44.84-87.01,94.6
			c0,52.44,42.52,94.96,94.96,94.96s94.96-42.52,94.96-94.96c0-7.4-0.87-14.59-2.48-21.5C708.29,531.34,705.77,531.15,702.94,530.4z
			 M618.05,610.25c-31.85,0-57.67-25.82-57.67-57.67s25.82-57.67,57.67-57.67s57.67,25.82,57.67,57.67S649.9,610.25,618.05,610.25z"
			/>
		<g>
			<path class="st4" d="M377.05,330.37v468.52c0,0-190.16,0-225.99-88.88V425.45C151.05,425.45,140.72,337.26,377.05,330.37z"/>
			<path class="st3" d="M377.05,377.91c0,0-151.76-1.42-203.63,57.56c0,0,55.75,51.17,203.63,55.43V377.91z"/>
			<path class="st6" d="M377.05,340.01c0,0-222.96,6.96-203.63,95.46c0,0,35.52-51.71,203.63-57.56V340.01z"/>
			<path class="st7" d="M252.83,461.5c-14.96,5.57-39.19,4.57-79.42-26.03c9.75-8.26,24.61-19.48,44.47-29.6
				c32.96-16.79,61.72-21.41,84.06-24.8c18.42-2.8,44.15-5.18,75.1-3.16c0,5.27,0,10.54,0,15.82c-22.28-0.21-52.03,3.39-77.05,22.49
				C276.24,434.35,273.14,453.94,252.83,461.5z"/>
		</g>
		<path class="st4" d="M375.75,330.37v468.52c0,0,190.16,0,225.99-88.88V425.45C601.75,425.45,612.08,337.26,375.75,330.37z"/>
		<path class="st3" d="M375.75,377.91c0,0,151.76-1.42,203.63,57.56c0,0-55.75,51.17-203.63,55.43V377.91z"/>
		<path class="st4" d="M420.19,395.47c0,0-7.58-8.96,4.82-6.2c12.4,2.76,87.5,14.47,89.57,26.18
			C516.65,427.16,488.4,410.63,420.19,395.47z"/>
		<path class="st4" d="M530.58,423.42c0,0-1.28-4.51,0.81-3.12c2.09,1.39,14.73,7.29,15.08,13.18S542.06,431.05,530.58,423.42z"/>
		
			<linearGradient id="SVGID_00000140719313221150119690000009156407971156701824_" gradientUnits="userSpaceOnUse" x1="351.55" y1="180.525" x2="601.74" y2="180.525" gradientTransform="matrix(1 0 0 -1 0 800)">
			<stop  offset="0" style="stop-color:#FFFFFF"/>
			<stop  offset="1" style="stop-color:#868586"/>
		</linearGradient>
		<path style="opacity:0.42;fill:url(#SVGID_00000140719313221150119690000009156407971156701824_);enable-background:new    ;" d="
			M351.55,515.02c0,0,179.31,11.3,250.19-74.96v269.95c0,0-21.44,88.88-250.19,88.88V515.02z"/>
		
			<linearGradient id="SVGID_00000036253703501969901510000012151203633204570037_" gradientUnits="userSpaceOnUse" x1="363.96" y1="450.37" x2="437.0753" y2="450.37" gradientTransform="matrix(1 0 0 -1 0 800)">
			<stop  offset="0" style="stop-color:#FFFFFF"/>
			<stop  offset="1" style="stop-color:#868586"/>
		</linearGradient>
		<path style="opacity:0.42;fill:url(#SVGID_00000036253703501969901510000012151203633204570037_);enable-background:new    ;" d="
			M427.05,269.54c0,0,47.16,67.3-63.09,160.18C363.96,429.72,437.77,318.95,427.05,269.54z"/>
		<path class="st10" d="M298.7,238.04c20.05,74.03,91.64,52.36,74.41,134.36c-7.44,35.4-17.77,55.94-13.88,58.44
			c4.92,3.17,34.35-24.59,53.24-63.52c4.1-8.46,36.58-75.41,8.67-106.54c-4.08-4.55-8.54-7.32-11.71-8.96
			c-11.06-6.29-26.86-17.32-40.28-35.66c-29.62-40.46-25.19-85.83-23.6-98.01C345.55,118.15,280.78,171.9,298.7,238.04z"/>
		<path class="st6" d="M456.33,8.25"/>
		<polyline class="st2" points="441.32,11.46 276.39,74.97 292.76,81.26 		"/>
		<polyline class="st2" points="447.71,13.7 377.13,108.42 384.91,110.77 		"/>
	</g>
</g>
</svg>
